<svg xmlns="http://www.w3.org/2000/svg" height="40" viewBox="0 -960 960 960" width="40"><path d="M480-455.897 265.949-241.846q-4.795 4.795-11.667 5.179-6.872.385-12.436-5.179t-5.564-12.051q0-6.488 5.564-12.052L455.897-480 241.846-694.051q-4.795-4.795-5.179-11.667-.385-6.872 5.179-12.436t12.051-5.564q6.488 0 12.052 5.564L480-504.103l214.051-214.051q4.795-4.795 11.667-5.179 6.872-.385 12.436 5.179t5.564 12.051q0 6.488-5.564 12.052L504.103-480l214.051 214.051q4.795 4.795 5.179 11.667.385 6.872-5.179 12.436t-12.051 5.564q-6.488 0-12.052-5.564L480-455.897Z" fill="#333"/></svg>