<svg xmlns="http://www.w3.org/2000/svg" height="40" viewBox="0 -960 960 960" width="40"><path d="M156.923-269.231q-7.192 0-12.058-4.909Q140-279.049 140-286.307q0-7.257 4.865-12.013 4.866-4.757 12.058-4.757h646.154q7.192 0 12.058 4.91Q820-293.258 820-286.001q0 7.258-4.865 12.014-4.866 4.756-12.058 4.756H156.923Zm0-193.846q-7.192 0-12.058-4.909-4.865-4.91-4.865-12.167t4.865-12.014q4.866-4.756 12.058-4.756h646.154q7.192 0 12.058 4.909 4.865 4.91 4.865 12.167t-4.865 12.014q-4.866 4.756-12.058 4.756H156.923Zm0-193.846q-7.192 0-12.058-4.91Q140-666.742 140-673.999q0-7.258 4.865-12.014 4.866-4.756 12.058-4.756h646.154q7.192 0 12.058 4.909Q820-680.951 820-673.693q0 7.257-4.865 12.013-4.866 4.757-12.058 4.757H156.923Z" fill="#fffff3"/></svg>